<svg width="100" height="100" viewBox="0 0 100 100" fill="none" xmlns="http://www.w3.org/2000/svg">
<g clip-path="url(#clip0)">
<rect x="29" y="66" width="13" height="4" fill="#13AAFF"/>
<rect x="58" y="66" width="13" height="4" fill="#13AAFF"/>
<rect x="64" y="39" width="4" height="3" fill="#13AAFF"/>
<path d="M83.3274 82.6243C80.0269 75.0492 78.6086 66.6698 79.1137 57.7206C79.5173 50.5566 81.0653 45.1276 81.7122 43.1256C82.038 42.1209 81.8511 41.0184 81.214 40.1777C78.8337 37.0389 77.5817 31.5572 77.5931 24.3269C77.5939 23.5159 76.9378 22.8583 76.1252 22.8567C75.3158 22.8567 74.6589 23.5129 74.6581 24.3223C74.6451 32.3126 76.0642 38.2436 78.8749 41.9507C78.9336 42.0285 78.9504 42.13 78.9199 42.2231C78.2378 44.3334 76.6067 50.0508 76.1832 57.5558C75.653 66.9681 77.1514 75.7968 80.6372 83.797C80.6937 83.9267 80.6617 84.0716 80.5594 84.1578C77.3292 86.8754 66.0003 95.8361 55.8449 97.0621C55.7495 97.0751 55.6496 97.0301 55.5832 96.9485L50.4647 90.6489C50.3945 90.5627 50.3556 90.4528 50.3556 90.3407V34.2092C50.3556 34.1283 50.3746 34.0513 50.4128 33.9803C52.2362 30.5654 56.3812 22.6004 59.4574 15.1572C61.2755 10.7642 62.6892 6.62909 63.0783 3.66966L75.8864 8.94307C76.0207 8.99876 76.097 9.13838 76.0718 9.28181C75.8506 10.5185 75.5286 12.4968 75.2479 14.9039C75.1533 15.7088 75.73 16.4381 76.5349 16.532C77.3406 16.6281 78.0692 16.0491 78.163 15.2442C78.4347 12.9103 78.7467 10.9946 78.9611 9.79832C79.2273 8.30678 78.4041 6.80609 77.0034 6.22931C76.8477 6.16522 76.6913 6.10113 76.5357 6.03705C73.4023 4.74616 70.2682 3.45604 67.134 2.16591C65.7364 1.5899 64.3425 1.00167 62.9402 0.438625C61.3861 -0.184693 59.803 0.0388469 58.1375 0.0396098C53.9711 0.0396098 49.8055 0.0396098 45.6399 0.0396098C43.9042 0.0396098 42.1685 0.0396098 40.4328 0.0396098C38.2379 0.0396098 36.6235 0.702601 34.5933 1.53878C32.9652 2.2094 31.3371 2.87926 29.709 3.54988C27.54 4.44327 25.3702 5.33667 23.2012 6.22931C21.8004 6.80609 20.978 8.30678 21.2442 9.79832C23.16 20.5199 23.5742 34.1306 18.992 40.1769C18.3542 41.0184 18.1673 42.1209 18.4923 43.1272C19.1393 45.1291 20.6881 50.5582 21.0916 57.7221C21.5959 66.6706 20.1784 75.0484 16.878 82.6228C16.2981 83.9541 16.6514 85.4739 17.7576 86.4047C19.2606 87.6696 22.3657 90.1652 26.2705 92.6714C26.9518 93.1086 27.8604 92.911 28.2983 92.2297C28.7355 91.5476 28.5379 90.639 27.8558 90.2018C24.0892 87.7841 21.0962 85.3778 19.6474 84.1594C19.5436 84.0716 19.5124 83.9259 19.5688 83.7954C23.0539 75.7961 24.5523 66.9681 24.0221 57.5573C23.5994 50.0523 21.9675 44.3341 21.2854 42.2246C21.2549 42.13 21.2717 42.0278 21.3312 41.95C24.1556 38.223 25.5739 32.2508 25.5464 24.1995C25.5258 17.9831 24.6523 12.1855 24.1335 9.28258C24.1075 9.13838 24.1838 8.99953 24.3189 8.94383L37.1156 3.675C37.3963 5.86844 38.2707 8.8477 39.7538 12.67C42.3707 19.48 46.2357 27.1887 48.4436 31.4298C48.2377 31.8205 48.0301 32.2103 47.8234 32.5979C47.5594 33.0915 47.4206 33.6492 47.4206 34.21V90.3407C47.4206 91.125 47.6929 91.8917 48.1873 92.5005L48.2117 92.5303L44.6221 96.9485C44.5557 97.0309 44.4565 97.0759 44.3604 97.0629C41.6581 96.7364 38.6415 95.8254 35.3952 94.356C34.6566 94.0218 33.7869 94.3499 33.4527 95.0877C33.1186 95.8262 33.4466 96.6959 34.1851 97.0301C37.7038 98.6231 41.0096 99.6142 44.0087 99.9765C44.1392 99.9926 44.2689 100 44.3978 100C45.3614 100 46.2761 99.5669 46.8995 98.7993L50.1023 94.858L53.3051 98.7993C53.9292 99.5676 54.8432 100 55.8075 100C55.9364 100 56.0661 99.9926 56.1958 99.9765C60.9123 99.4074 66.291 97.3162 72.1839 93.7624C76.8516 90.9464 80.6189 87.9435 82.4485 86.4039C83.5539 85.4739 83.9072 83.9549 83.3274 82.6243ZM48.8671 25.7566C48.7931 25.6071 48.7183 25.456 48.6428 25.3042C45.3698 18.6728 42.3646 11.875 40.8944 7.05862C40.3245 5.17951 40.0704 3.87565 39.9835 2.97462H60.2241C59.8282 7.14788 56.1157 16.4244 50.1046 28.2186C49.7284 27.4794 49.3241 26.676 48.9006 25.823C48.8892 25.8009 48.8778 25.7788 48.8671 25.7566Z" fill="black"/>
<path d="M75.7271 42.9925C75.7271 42.1822 75.0694 41.5254 74.2592 41.5254H71.7842L67.2561 36.7547C66.9021 36.3816 66.4077 36.1627 65.8882 36.1764C65.3732 36.1817 64.8788 36.403 64.5317 36.7852L60.2279 41.5254H57.7736C56.9633 41.5254 56.3057 42.1822 56.3057 42.9925C56.3057 43.8035 56.9626 44.4604 57.7736 44.4604H60.6163C60.6956 44.4734 60.7757 44.4825 60.8581 44.4825H71.1746C71.257 44.4825 71.3379 44.4741 71.4172 44.4604H74.2592C75.0694 44.4604 75.7271 43.8035 75.7271 42.9925ZM65.9256 39.6165L67.7375 41.5254H64.1922L65.9256 39.6165Z" fill="black"/>
<path d="M44.3491 68.5096V66.7175C44.3491 65.3686 43.252 64.2715 41.9031 64.2715H29.6442C28.2961 64.2715 27.1982 65.3686 27.1982 66.7175V68.5096C27.1982 70.6931 28.9751 72.4693 31.1579 72.4693H40.3887C42.573 72.4693 44.3491 70.6931 44.3491 68.5096ZM30.134 68.5096V67.2065H41.4141V68.5096C41.4141 69.0742 40.9548 69.5342 40.3895 69.5342H31.1587C30.5933 69.5342 30.134 69.0742 30.134 68.5096Z" fill="black"/>
<path d="M58.3015 64.418C56.9526 64.418 55.8555 65.5158 55.8555 66.864V68.6561C55.8555 70.8396 57.6316 72.6158 59.8151 72.6158H69.0459C71.2295 72.6158 73.0056 70.8396 73.0056 68.6561V66.864C73.0056 65.5158 71.9085 64.418 70.5596 64.418H58.3015ZM70.0706 68.6561C70.0706 69.2214 69.6113 69.6807 69.0459 69.6807H59.8151C59.2505 69.6807 58.7905 69.2214 58.7905 68.6561V67.353H70.0713V68.6561H70.0706Z" fill="black"/>
</g>
<defs>
<clipPath id="clip0">
<rect width="100" height="100" fill="white"/>
</clipPath>
</defs>
</svg>
