<svg width="10" height="10" viewBox="0 0 10 10" fill="none" xmlns="http://www.w3.org/2000/svg">
    <path d="M5 0C2.24308 0 0 2.24288 0 5C0 7.75712 2.24308 10 5 10C7.75692 10 10 7.75712 10 5C10 2.24288 7.75692 0 5 0ZM5 9.61539C2.45519 9.61539 0.384615 7.54481 0.384615 5C0.384615 2.45519 2.45519 0.384615 5 0.384615C7.54481 0.384615 9.61539 2.45519 9.61539 5C9.61539 7.54481 7.54481 9.61539 5 9.61539Z" fill="black"/>
    <path d="M7.49993 4.80859H2.49992C2.39377 4.80859 2.30762 4.89456 2.30762 5.0009C2.30762 5.10725 2.39377 5.19321 2.49992 5.19321H7.49993C7.60608 5.19321 7.69223 5.10725 7.69223 5.0009C7.69223 4.89456 7.60608 4.80859 7.49993 4.80859Z" fill="black"/>
</svg>
