<svg width="10" height="10" viewBox="0 0 10 10" fill="none" xmlns="http://www.w3.org/2000/svg">
    <path d="M5 0C2.24308 0 0 2.24288 0 5C0 7.75712 2.24308 10 5 10C7.75692 10 10 7.75712 10 5C10 2.24288 7.75692 0 5 0ZM5 9.61539C2.45519 9.61539 0.384615 7.54481 0.384615 5C0.384615 2.45519 2.45519 0.384615 5 0.384615C7.54481 0.384615 9.61539 2.45519 9.61539 5C9.61539 7.54481 7.54481 9.61539 5 9.61539Z" fill="black"/>
    <path d="M7.40381 4.80769H5.19227V2.69231C5.19227 2.58596 5.10612 2.5 4.99996 2.5C4.89381 2.5 4.80765 2.58596 4.80765 2.69231V4.80769H2.59612C2.48996 4.80769 2.40381 4.89365 2.40381 5C2.40381 5.10635 2.48996 5.19231 2.59612 5.19231H4.80765V7.5C4.80765 7.60635 4.89381 7.69231 4.99996 7.69231C5.10612 7.69231 5.19227 7.60635 5.19227 7.5V5.19231H7.40381C7.50996 5.19231 7.59612 5.10635 7.59612 5C7.59612 4.89365 7.50996 4.80769 7.40381 4.80769Z" fill="black"/>
</svg>
