<svg width="17" height="17" viewBox="0 0 17 17" fill="none" xmlns="http://www.w3.org/2000/svg">
    <path d="M3.54163 6.80007H10.625C10.7814 6.80007 10.9083 6.67313 10.9083 6.51673C10.9083 6.36033 10.7814 6.2334 10.625 6.2334H3.54163C3.38523 6.2334 3.2583 6.36033 3.2583 6.51673C3.2583 6.67313 3.38523 6.80007 3.54163 6.80007Z" fill="black"/>
    <path d="M3.54163 4.53346H6.37497C6.53137 4.53346 6.6583 4.40653 6.6583 4.25013C6.6583 4.09373 6.53137 3.9668 6.37497 3.9668H3.54163C3.38523 3.9668 3.2583 4.09373 3.2583 4.25013C3.2583 4.40653 3.38523 4.53346 3.54163 4.53346Z" fill="black"/>
    <path d="M3.54163 9.06667H10.625C10.7814 9.06667 10.9083 8.93973 10.9083 8.78333C10.9083 8.62693 10.7814 8.5 10.625 8.5H3.54163C3.38523 8.5 3.2583 8.62693 3.2583 8.78333C3.2583 8.93973 3.38523 9.06667 3.54163 9.06667Z" fill="black"/>
    <path d="M8.3583 10.7666H3.54163C3.38523 10.7666 3.2583 10.8935 3.2583 11.0499C3.2583 11.2063 3.38523 11.3333 3.54163 11.3333H8.3583C8.5147 11.3333 8.64163 11.2063 8.64163 11.0499C8.64163 10.8935 8.5147 10.7666 8.3583 10.7666Z" fill="black"/>
    <path d="M7.5083 13.0332H3.54163C3.38523 13.0332 3.2583 13.1601 3.2583 13.3165C3.2583 13.4729 3.38523 13.5999 3.54163 13.5999H7.5083C7.6647 13.5999 7.79163 13.4729 7.79163 13.3165C7.79163 13.1601 7.6647 13.0332 7.5083 13.0332Z" fill="black"/>
    <path d="M13.7417 9.73618V4.1327L9.60896 0H0.424988V17H12.8917C14.9226 17 16.575 15.3476 16.575 13.3167C16.575 11.5787 15.3635 10.1215 13.7417 9.73618ZM9.77499 0.9673L12.7744 3.96667H9.77499V0.9673ZM10.9304 16.4333H0.991655V0.566667H9.20832V4.53333H13.175V9.6458C13.0781 9.63758 12.984 9.63333 12.8917 9.63333C10.8607 9.63333 9.20832 11.2857 9.20832 13.3167C9.20832 13.4297 9.21541 13.5411 9.22532 13.6518C9.22759 13.6776 9.23014 13.7031 9.23297 13.7289C9.24516 13.8372 9.26074 13.9442 9.28199 14.0494C9.28454 14.0618 9.28794 14.074 9.29049 14.0865C9.31089 14.1823 9.33554 14.2763 9.36331 14.3693C9.37039 14.3925 9.3769 14.416 9.38427 14.4389C9.41629 14.5387 9.45199 14.6367 9.49194 14.7328C9.49959 14.7509 9.50809 14.7685 9.51574 14.7863C9.55229 14.8702 9.59196 14.9521 9.63446 15.0325C9.64466 15.0518 9.65429 15.0714 9.66477 15.0906C9.71436 15.1804 9.76762 15.268 9.82457 15.3533C9.83761 15.3728 9.85121 15.3915 9.86452 15.4108C9.91637 15.4856 9.97077 15.5584 10.0277 15.629C10.0385 15.6423 10.0487 15.6561 10.0597 15.6695C10.1252 15.7482 10.1943 15.8236 10.266 15.8964C10.2836 15.9143 10.3014 15.9316 10.3196 15.9491C10.389 16.0168 10.4601 16.0826 10.5346 16.1446C10.5411 16.1503 10.5474 16.1562 10.5542 16.1616C10.6341 16.2274 10.7176 16.2888 10.8032 16.3481C10.8239 16.3625 10.8449 16.3764 10.8658 16.3903C10.8876 16.4042 10.9086 16.4195 10.9304 16.4333ZM12.8917 16.4333C11.1732 16.4333 9.77499 15.0351 9.77499 13.3167C9.77499 11.5982 11.1732 10.2 12.8917 10.2C12.9801 10.2 13.0673 10.2059 13.154 10.2133C13.2365 10.2213 13.3218 10.232 13.4116 10.247L13.5371 10.268C14.9467 10.5663 16.0083 11.8195 16.0083 13.3167C16.0083 15.0351 14.6101 16.4333 12.8917 16.4333Z" fill="black"/>
    <path d="M14.5917 13.0335H13.175V11.6168C13.175 11.4604 13.0481 11.3335 12.8917 11.3335C12.7353 11.3335 12.6083 11.4604 12.6083 11.6168V13.0335H11.1917C11.0353 13.0335 10.9083 13.1604 10.9083 13.3168C10.9083 13.4732 11.0353 13.6002 11.1917 13.6002H12.6083V15.0168C12.6083 15.1732 12.7353 15.3002 12.8917 15.3002C13.0481 15.3002 13.175 15.1732 13.175 15.0168V13.6002H14.5917C14.7481 13.6002 14.875 13.4732 14.875 13.3168C14.875 13.1604 14.7481 13.0335 14.5917 13.0335Z" fill="black"/>
</svg>
