<svg width="10" height="10" viewBox="0 0 10 10" fill="none" xmlns="http://www.w3.org/2000/svg">
    <path d="M5 0C2.24308 0 0 2.24288 0 5C0 7.75712 2.24308 10 5 10C7.75692 10 10 7.75712 10 5C10 2.24288 7.75692 0 5 0ZM5 9.61539C2.45519 9.61539 0.384615 7.54481 0.384615 5C0.384615 2.45519 2.45519 0.384615 5 0.384615C7.54481 0.384615 9.61539 2.45519 9.61539 5C9.61539 7.54481 7.54481 9.61539 5 9.61539Z" fill="black"/>
    <path d="M6.867 3.13257C6.79181 3.05737 6.67027 3.05737 6.59508 3.13257L5.00027 4.72737L3.40547 3.13257C3.33027 3.05737 3.20873 3.05737 3.13354 3.13257C3.05835 3.20776 3.05835 3.3293 3.13354 3.40449L4.72835 4.9993L3.13354 6.5941C3.05835 6.6693 3.05835 6.79084 3.13354 6.86603C3.17104 6.90353 3.22027 6.92237 3.2695 6.92237C3.31874 6.92237 3.36797 6.90353 3.40547 6.86603L5.00027 5.27122L6.59508 6.86603C6.63258 6.90353 6.68181 6.92237 6.73104 6.92237C6.78027 6.92237 6.8295 6.90353 6.867 6.86603C6.9422 6.79084 6.9422 6.6693 6.867 6.5941L5.2722 4.9993L6.867 3.40449C6.9422 3.3293 6.9422 3.20776 6.867 3.13257Z" fill="black"/>
</svg>
