<svg width="100" height="100" viewBox="0 0 100 100" fill="none" xmlns="http://www.w3.org/2000/svg">
<path d="M83.5725 75.9855C79.1184 74.3756 73.2739 73.1309 66.5208 72.3472C67.1738 71.6861 67.8176 71.0165 68.45 70.3371C74.4951 63.8391 78.5204 57.4855 80.7558 50.9146C85.5574 36.8006 80.8401 19.3171 69.7841 10.2477C64.1604 5.63472 57.0013 3.09375 49.6261 3.09375C49.6255 3.09375 49.6261 3.09375 49.6261 3.09375C42.2514 3.09375 35.0918 5.63472 29.468 10.2477C24.2324 14.543 20.2008 20.8553 18.1157 28.0218C16.0557 35.1047 16.0087 42.5911 17.9821 49.1041C20.6228 57.8174 26.2935 65.4914 32.9636 72.3506C26.2339 73.1338 20.4084 74.3739 15.9634 75.9792C9.89935 78.1687 6.8252 80.9115 6.8252 84.1301C6.8252 88.0608 11.3367 91.2462 20.2335 93.5997C28.1436 95.6917 38.6292 96.8441 49.7597 96.8441C60.8896 96.8441 71.3751 95.6917 79.2852 93.5997C88.1821 91.2462 92.6935 88.0608 92.6935 84.1301C92.6935 80.9143 89.6251 78.1744 83.5725 75.9855ZM21.6605 29.0532C23.5393 22.5948 27.1438 16.9298 31.8101 13.1023C36.7756 9.02822 43.1022 6.78538 49.6261 6.78538C56.1499 6.78538 62.4771 9.02936 67.4427 13.1023C72.2706 17.0628 75.9164 23.0248 77.7074 29.8909C79.471 36.6492 79.3122 43.6942 77.2603 49.7256C72.6353 63.3225 60.4676 73.4617 49.6261 82.397C38.1378 72.9159 25.6485 61.6736 21.5155 48.0343C19.7468 42.1967 19.7978 35.4561 21.6605 29.0532ZM78.341 90.0302C70.7301 92.0437 60.58 93.1525 49.7597 93.1525C38.9388 93.1525 28.7886 92.0437 21.1778 90.0302C12.762 87.8045 10.5168 85.2745 10.5168 84.1307C10.5168 81.6786 18.7371 77.3362 36.3668 75.7074C40.0413 79.1949 43.9003 82.4635 47.6452 85.5485C49.1657 86.8012 50.0612 86.8213 51.6075 85.5479C55.2555 82.5414 59.2298 79.2637 63.0596 75.6994C80.7529 77.3219 89.0019 81.6763 89.0019 84.1307C89.0019 85.2745 86.7568 87.8051 78.341 90.0302Z" fill="black"/>
<circle cx="50.5" cy="36.5" r="20.5" fill="#13AAFF"/>
<path d="M59.641 56.286C61.7853 55.2758 60.2161 51.9345 58.0684 52.9458C55.4449 54.1808 52.4934 54.8619 49.7569 54.8619C39.3133 54.8619 30.8166 46.3647 30.8166 35.921C30.8166 25.4768 39.3133 16.9813 49.7569 16.9813C60.2006 16.9813 68.6973 25.4773 68.6973 35.921C68.6973 38.4958 68.1904 40.9909 67.1911 43.3375C66.2618 45.5179 69.657 46.9684 70.5869 44.7846C71.7829 41.9776 72.3889 38.9957 72.3889 35.921C72.3889 23.442 62.2365 13.2891 49.7569 13.2891C37.2774 13.2891 27.125 23.442 27.125 35.921C27.125 48.4011 37.2774 58.5529 49.7569 58.5529C53.026 58.5529 56.5359 57.748 59.641 56.286Z" fill="black"/>
<path d="M64.911 48.2773C63.9071 48.2773 63.0654 49.1201 63.0654 50.1234C63.0654 51.1262 63.9082 51.969 64.911 51.969C65.8856 51.969 66.7101 51.1749 66.7531 50.2043C66.7989 49.1706 65.9464 48.2773 64.911 48.2773Z" fill="black"/>
<path fill-rule="evenodd" clip-rule="evenodd" d="M53.6044 28.6323C54.9939 26.8009 57.5902 26.4588 59.3929 27.8696C61.196 29.2808 61.5327 31.9185 60.1441 33.7504L51.325 45.38C49.9538 47.1875 47.3286 47.5389 45.5438 46.1483L40.6143 42.3085C38.8084 40.902 38.4657 38.2648 39.8502 36.4301C40.5208 35.5411 41.4926 34.9707 42.5855 34.8242C43.678 34.6773 44.7618 34.9716 45.6369 35.6534L47.2986 36.9476L53.6044 28.6323Z" fill="white"/>
</svg>
