<svg width="100" height="100" viewBox="0 0 100 100" fill="none" xmlns="http://www.w3.org/2000/svg">
<path d="M50.0168 85.3266C69.5275 85.3266 85.3441 69.51 85.3441 49.9992C85.3441 30.4885 69.5275 14.6719 50.0168 14.6719C30.506 14.6719 14.6895 30.4885 14.6895 49.9992C14.6895 69.51 30.506 85.3266 50.0168 85.3266Z" fill="#13AAFF"/>
<path d="M90.1375 96.0938H50.0166C24.6004 96.0938 3.92285 75.4162 3.92285 50C3.92285 24.5838 24.6004 3.90625 50.0166 3.90625C60.0203 3.90625 69.6383 7.12441 77.566 13.0447H75.4225C74.3439 13.0447 73.4693 13.9193 73.4693 14.9979C73.4693 16.0764 74.3439 16.951 75.4225 16.951H82.8393C83.9178 16.951 84.7924 16.0764 84.7924 14.9979V7.58105C84.7924 6.50254 83.9178 5.62793 82.8393 5.62793C81.7607 5.62793 80.8861 6.50254 80.8861 7.58105V10.668C72.1043 3.76445 61.2857 0 50.0166 0C36.6611 0 24.1051 5.20098 14.6611 14.6445C5.21758 24.0885 0.0166016 36.6445 0.0166016 50C0.0166016 63.3555 5.21758 75.9115 14.6611 85.3555C24.1051 94.7992 36.6611 100 50.0166 100H90.1375C91.216 100 92.0906 99.1254 92.0906 98.0469C92.0906 96.9684 91.216 96.0938 90.1375 96.0938Z" fill="black"/>
<path d="M21.148 29.5324C20.2357 28.9572 19.0295 29.2308 18.4543 30.1433C14.0203 37.1781 12.0632 45.6318 12.9443 53.9476C13.8382 62.388 17.6422 70.3478 23.6548 76.3607C30.9228 83.6285 40.4695 87.2622 50.0164 87.2622C59.5633 87.2622 69.1099 83.6285 76.3779 76.3607C90.9134 61.8249 90.9134 38.1734 76.3779 23.6378C70.3556 17.6158 62.383 13.8107 53.9287 12.9236C45.5978 12.0488 37.1341 14.022 30.0966 18.4779C29.1853 19.055 28.9142 20.2617 29.4912 21.173C30.0683 22.0843 31.275 22.3552 32.1863 21.7785C45.2449 13.5099 62.6689 15.4537 73.6156 26.4003C86.6281 39.413 86.6281 60.5861 73.6156 73.5988C67.1086 80.1058 58.564 83.3591 50.0164 83.3583C41.4709 83.3574 32.9226 80.1044 26.4172 73.5988C15.317 62.4986 13.4015 45.4857 21.7589 32.2265C22.3341 31.3136 22.0607 30.1076 21.148 29.5324Z" fill="black"/>
<path d="M29.1748 41.0215C26.0573 41.0215 23.5211 43.5576 23.5211 46.6752C23.5211 47.7537 24.3957 48.6283 25.4743 48.6283C26.5528 48.6283 27.4274 47.7537 27.4274 46.6752C27.4274 45.7115 28.2114 44.9277 29.1748 44.9277C30.7149 44.9277 30.9225 45.8109 30.9225 46.6752C30.9225 49.4998 26.8702 53.5426 24.3172 55.4264C23.6373 55.9266 23.3553 56.8066 23.6184 57.6088C23.8817 58.4107 24.6303 58.9531 25.4743 58.9531H32.8758C33.9543 58.9531 34.8289 58.0785 34.8289 57C34.8289 55.9215 33.9543 55.0469 32.8758 55.0469H30.5748C32.6819 52.8018 34.8289 49.7578 34.8289 46.6754C34.8287 43.2936 32.5565 41.0215 29.1748 41.0215Z" fill="white"/>
<path d="M38.9438 41.0215C37.8653 41.0215 36.9907 41.8961 36.9907 42.9746V49.9934C36.9907 51.0719 37.8653 51.9465 38.9438 51.9465H43.7272V57.0277C43.7272 58.1062 44.6019 58.9809 45.6804 58.9809C46.7589 58.9809 47.6335 58.1062 47.6335 57.0277V42.9748C47.6335 41.8963 46.7589 41.0217 45.6804 41.0217C44.6019 41.0217 43.7272 41.8963 43.7272 42.9748V48.0404H40.897V42.9748C40.897 41.8961 40.0224 41.0215 38.9438 41.0215Z" fill="white"/>
<path d="M53.7411 58.952C54.4829 58.952 55.192 58.5272 55.5196 57.8083L61.9085 43.7829C62.3555 42.8012 61.9221 41.643 60.9407 41.1958C59.9586 40.7485 58.801 41.1819 58.3536 42.1635L51.9647 56.1889C51.5176 57.1706 51.951 58.3288 52.9325 58.7761C53.1952 58.8956 53.4704 58.952 53.7411 58.952Z" fill="white"/>
<path d="M69.79 58.8707C69.9771 58.927 70.1662 58.9537 70.3519 58.9537C71.1922 58.9537 71.968 58.4072 72.2219 57.5611L76.4295 43.5357C76.6068 42.9445 76.4943 42.3039 76.1256 41.8086C75.757 41.3133 75.1762 41.0215 74.5588 41.0215H66.1436C65.065 41.0215 64.1904 41.8961 64.1904 42.9746C64.1904 44.0531 65.065 44.9277 66.1436 44.9277H71.9338L68.4805 56.4389C68.1705 57.4719 68.7568 58.5607 69.79 58.8707Z" fill="white"/>
<path d="M25.0371 23.0664C24.5215 23.0664 24.0176 23.2754 23.6543 23.6389C23.2912 24.002 23.082 24.5059 23.082 25.0195C23.082 25.5332 23.291 26.0371 23.6543 26.4004C24.0176 26.7637 24.5215 26.9727 25.0371 26.9727C25.5508 26.9727 26.0547 26.7639 26.418 26.4004C26.7812 26.0369 26.9883 25.5332 26.9883 25.0195C26.9883 24.5059 26.7812 24.002 26.418 23.6389C26.0547 23.2754 25.5508 23.0664 25.0371 23.0664Z" fill="black"/>
<path d="M98.0308 96.0938H98.0044C96.9259 96.0938 96.0513 96.9684 96.0513 98.0469C96.0513 99.1254 96.9259 100 98.0044 100H98.0308C99.1093 100 99.9839 99.1254 99.9839 98.0469C99.9839 96.9684 99.1093 96.0938 98.0308 96.0938Z" fill="black"/>
</svg>
