<svg width="22" height="15" viewBox="0 0 22 15" fill="none" xmlns="http://www.w3.org/2000/svg">
<path d="M16.8438 15C14.0006 15 11.6875 12.7445 11.6875 9.97207C11.6875 6.69063 12.7437 4.22674 13.6297 2.73763C14.6017 1.10414 15.5891 0.245415 15.6306 0.209633C15.9865 -0.0965677 16.5296 -0.0634253 16.8436 0.283586C17.157 0.629968 17.1238 1.15819 16.7698 1.46465C16.754 1.47847 15.9099 2.22575 15.0799 3.64048C13.9693 5.53321 13.4062 7.6635 13.4062 9.97207C13.4062 11.8203 14.9483 13.324 16.8438 13.324C18.7392 13.324 20.2812 11.8203 20.2812 9.97207C20.2812 8.15942 18.7698 6.65611 16.9119 6.621L16.8652 6.61991C16.3907 6.6083 16.0157 6.22383 16.0276 5.76118C16.0395 5.29853 16.4352 4.93417 16.9082 4.94443L16.9476 4.9454C18.3028 4.97159 19.5724 5.50576 20.523 6.44963C21.4754 7.39538 22 8.64633 22 9.97207C22 12.7445 19.6869 15 16.8438 15ZM10.3125 9.97207C10.3125 8.64633 9.78794 7.39538 8.83549 6.44963C7.88494 5.5058 6.61521 4.97163 5.26015 4.9454L5.22075 4.94443C4.74616 4.93417 4.352 5.29853 4.3401 5.76118C4.32824 6.22383 4.70323 6.6083 5.17769 6.61991L5.22444 6.621C7.08228 6.65607 8.59375 8.15938 8.59375 9.97207C8.59375 11.8203 7.05169 13.324 5.15625 13.324C3.26081 13.324 1.71875 11.8203 1.71875 9.97207C1.71875 7.6635 2.28181 5.53325 3.39243 3.64044C4.22245 2.22571 5.06653 1.47843 5.0823 1.4646C5.43628 1.15819 5.46954 0.629926 5.15612 0.283544C4.84206 -0.0634253 4.29907 -0.0965677 3.94316 0.209591C3.90161 0.245373 2.91423 1.1041 1.94227 2.73759C1.05617 4.22674 0 6.69063 0 9.97207C0 12.7445 2.31309 15 5.15625 15C7.99941 15 10.3125 12.7445 10.3125 9.97207Z" fill="url(#paint0_linear)"/>
<defs>
<linearGradient id="paint0_linear" x1="0" y1="7.50001" x2="22" y2="7.50001" gradientUnits="userSpaceOnUse">
<stop stop-color="#00F2FE"/>
<stop offset="0.021" stop-color="#03EFFE"/>
<stop offset="0.293" stop-color="#24D2FE"/>
<stop offset="0.554" stop-color="#3CBDFE"/>
<stop offset="0.796" stop-color="#4AB0FE"/>
<stop offset="1" stop-color="#4FACFE"/>
</linearGradient>
</defs>
</svg>
