<svg width="26" height="30" viewBox="0 0 26 30" fill="none" xmlns="http://www.w3.org/2000/svg">
<path d="M15.0403 19.9282C14.9282 19.8055 14.7865 19.7138 14.64 19.6373C14.3211 19.471 13.9723 19.3701 13.626 19.2791V21.9627C14.1881 21.8991 14.8334 21.6951 15.1286 21.1703C15.2695 20.9197 15.2975 20.6117 15.2401 20.3326C15.209 20.1814 15.1447 20.0426 15.0403 19.9282Z" fill="white"/>
<path d="M15.126 21.1769C15.1274 21.1745 15.1282 21.173 15.1297 21.1704C15.1285 21.1726 15.1272 21.1747 15.126 21.1769Z" fill="white"/>
<path d="M10.9894 15.6383C10.8927 15.7794 10.8321 15.9397 10.8154 16.1101C10.7986 16.2809 10.808 16.4709 10.8729 16.6316C10.9347 16.7848 11.0641 16.8979 11.1976 16.9889C11.3475 17.0909 11.5123 17.1705 11.6802 17.238C11.821 17.2947 11.9794 17.3489 12.1502 17.4013V14.9729C11.7188 15.065 11.2475 15.2615 10.9894 15.6383Z" fill="white"/>
<path d="M15.1405 21.1506C15.1368 21.1572 15.1328 21.1641 15.1289 21.1713C15.1335 21.1629 15.1371 21.1567 15.1405 21.1506Z" fill="white"/>
<path d="M15.1543 21.1267C15.1561 21.1233 15.1564 21.123 15.1543 21.1267V21.1267Z" fill="white"/>
<path d="M14.5716 6.52752C16.8537 4.61039 18.3786 0.291389 17.4402 0.102486C16.1933 -0.148608 13.4855 0.952408 12.1768 1.14639C10.3205 1.37052 8.29874 -0.866524 7.16391 0.380405C6.24121 1.39424 7.82542 5.08124 10.304 6.68748C2.90936 10.3218 -7.48426 28.5665 10.648 29.8903C35.737 31.7221 23.174 10.0691 14.5716 6.52752ZM16.7262 20.9161C16.6491 21.6274 16.2721 22.2706 15.7087 22.7073C15.1137 23.1684 14.3675 23.3829 13.6261 23.4429V24.2288C13.6261 24.4391 13.5342 24.6425 13.3768 24.7817C13.1605 24.9732 12.8425 25.0204 12.5799 24.8994C12.3206 24.7801 12.1503 24.5142 12.1503 24.2288V23.3699C12.0232 23.3457 11.8969 23.317 11.7722 23.2828C11.0793 23.0924 10.4365 22.7213 9.96703 22.1722C9.73316 21.8985 9.54249 21.588 9.41063 21.2528C9.37618 21.1652 9.34547 21.0759 9.31858 20.9857C9.29422 20.904 9.26909 20.821 9.26041 20.7359C9.2458 20.5931 9.2741 20.4474 9.34067 20.3202C9.47748 20.0585 9.76577 19.9004 10.0601 19.9267C10.3498 19.9524 10.6038 20.1534 10.695 20.4296C10.7231 20.5147 10.7421 20.6018 10.7737 20.686C10.805 20.7696 10.8427 20.8508 10.8871 20.9282C10.9748 21.0805 11.0846 21.221 11.2111 21.3429C11.4719 21.5942 11.804 21.7574 12.1503 21.8546V18.9348C11.4732 18.7595 10.7744 18.5331 10.2153 18.0984C9.94359 17.887 9.71304 17.6244 9.56205 17.3136C9.40272 16.9856 9.33672 16.6201 9.33403 16.2571C9.33128 15.8886 9.40131 15.5233 9.55506 15.1875C9.69906 14.8731 9.90639 14.5908 10.1606 14.3568C10.7041 13.8565 11.4262 13.5774 12.1504 13.4749V13.4107V12.6591C12.1504 12.4489 12.2422 12.2454 12.3996 12.1062C12.616 11.9149 12.9339 11.8676 13.1965 11.9885C13.4557 12.1079 13.6261 12.3738 13.6261 12.6591V13.4107V13.4705C13.7226 13.4826 13.8189 13.4972 13.9146 13.5145C14.6257 13.6432 15.3213 13.9369 15.8413 14.4496C16.0877 14.6924 16.2894 14.9818 16.4312 15.2973C16.4708 15.3853 16.5054 15.4754 16.5354 15.5673C16.5634 15.6529 16.5915 15.7411 16.6048 15.8304C16.6261 15.9731 16.6044 16.1205 16.5433 16.251C16.4183 16.5184 16.1377 16.6887 15.8426 16.676C15.5526 16.6634 15.2898 16.4746 15.186 16.2035C15.1551 16.1229 15.1396 16.0375 15.1081 15.9571C15.0762 15.8757 15.035 15.7981 14.9875 15.7247C14.8952 15.5822 14.7755 15.4599 14.6389 15.3592C14.3431 15.1407 13.9844 15.0269 13.6259 14.9633V17.7575C14.052 17.8595 14.4783 17.9708 14.8865 18.1317C15.5034 18.375 16.088 18.748 16.4247 19.3361C16.3724 19.2445 16.3216 19.1552 16.4264 19.3392C16.5294 19.5199 16.4802 19.4338 16.4286 19.3432C16.6965 19.8153 16.7845 20.3798 16.7262 20.9161Z" fill="white"/>
<path d="M15.1184 21.1895C15.1139 21.1975 15.11 21.2046 15.1069 21.2099C15.1096 21.2053 15.1136 21.1983 15.1184 21.1895Z" fill="white"/>
</svg>
