<svg width="268" height="56" viewBox="0 0 268 56" fill="none" xmlns="http://www.w3.org/2000/svg">
<g clip-path="url(#clip0)">
<path d="M77.2363 22.4824H80.4478V42.5543H92.9727V45.4447H77.2363V22.4824Z" fill="#fff"/>
<path d="M108.228 29.7082C109.512 30.8322 110.155 32.5985 110.155 35.0071V45.4445H107.104V43.1965C106.622 43.9993 105.819 44.6416 104.856 45.1234C103.892 45.6051 102.768 45.7657 101.323 45.7657C99.396 45.7657 97.7903 45.2839 96.6662 44.3205C95.5422 43.357 94.8999 42.0724 94.8999 40.6273C94.8999 39.1821 95.3816 37.8975 96.5057 36.934C97.6297 35.9706 99.396 35.4889 101.805 35.4889H106.782V34.8466C106.782 33.562 106.461 32.4379 105.658 31.7956C104.856 30.9928 103.732 30.6716 102.126 30.6716C101.162 30.6716 100.038 30.8322 99.0749 31.1533C98.1114 31.4745 97.3085 31.9562 96.5057 32.4379L95.2211 30.0293C96.1845 29.387 97.148 28.7447 98.4326 28.4236C99.7172 28.1024 101.002 27.7812 102.447 27.7812C105.177 27.9418 106.943 28.4236 108.228 29.7082ZM105.177 42.3936C105.98 41.9119 106.622 41.109 107.104 40.1455V37.7369H102.286C99.5566 37.7369 98.272 38.7004 98.272 40.4667C98.272 41.2696 98.5931 42.0724 99.2354 42.5542C99.8777 43.0359 100.841 43.357 102.126 43.357C103.25 43.1965 104.213 42.8753 105.177 42.3936Z" fill="#fff"/>
<path d="M132.314 28.1016V45.4437H129.263V42.8745C128.621 43.8379 127.818 44.4802 126.694 44.962C125.73 45.4437 124.446 45.7648 123.322 45.7648C121.073 45.7648 119.147 45.1225 117.862 43.8379C116.577 42.5533 115.935 40.6264 115.935 38.2178V28.2621H119.147V37.8967C119.147 39.5024 119.628 40.787 120.431 41.7505C121.234 42.5533 122.358 43.0351 123.964 43.0351C125.57 43.0351 127.015 42.5533 127.978 41.5899C128.942 40.6264 129.423 39.1813 129.423 37.2544V28.2621H132.314V28.1016Z" fill="#fff"/>
<path d="M152.867 29.8687C154.152 31.1533 154.794 33.0802 154.794 35.4889V45.4445H151.583V35.81C151.583 34.2043 151.101 32.9197 150.298 31.9562C149.495 31.1533 148.371 30.6716 146.765 30.6716C144.999 30.6716 143.714 31.1533 142.751 32.1168C141.787 33.0802 141.306 34.5254 141.306 36.4523V45.4445H138.094V28.1024H141.306V30.6716C141.948 29.7082 142.751 29.0659 143.875 28.5841C144.999 28.1024 146.123 27.7812 147.568 27.7812C149.816 27.9418 151.583 28.5841 152.867 29.8687Z" fill="#fff"/>
<path d="M177.114 21.0371V45.4445H174.063V42.7148C173.421 43.6782 172.458 44.4811 171.334 44.9628C170.209 45.4445 169.085 45.7657 167.801 45.7657C166.195 45.7657 164.589 45.4445 163.305 44.6417C162.02 43.8388 160.896 42.8753 160.093 41.4302C159.29 39.985 158.969 38.5398 158.969 36.7735C158.969 35.0072 159.29 33.4014 160.093 32.1168C160.896 30.8322 161.86 29.7082 163.305 29.0659C164.589 28.263 166.195 27.9418 167.801 27.9418C169.085 27.9418 170.209 28.1024 171.173 28.5841C172.297 29.0659 173.1 29.7082 173.742 30.6716V21.0371H177.114ZM171.173 42.0725C172.136 41.5907 172.779 40.7879 173.26 39.8244C173.742 38.861 174.063 37.8975 174.063 36.6129C174.063 35.3283 173.742 34.3648 173.26 33.4014C172.779 32.4379 171.976 31.7956 171.173 31.3139C170.209 30.8322 169.246 30.511 168.122 30.511C166.998 30.511 166.035 30.8322 165.071 31.3139C164.108 31.7956 163.465 32.5985 162.984 33.4014C162.502 34.2043 162.181 35.3283 162.181 36.6129C162.181 37.8975 162.502 38.861 162.984 39.8244C163.465 40.7879 164.268 41.4302 165.071 42.0725C165.874 42.7148 166.998 42.8753 168.122 42.8753C169.246 42.8753 170.209 42.7148 171.173 42.0725Z" fill="#fff"/>
<path d="M188.515 28.7443C189.639 28.2626 190.924 27.9414 192.369 27.9414V30.9923C192.208 30.9923 191.887 30.9923 191.727 30.9923C189.96 30.9923 188.676 31.4741 187.712 32.5981C186.749 33.5615 186.267 35.0067 186.267 36.9336V45.6047H183.056V28.102H186.107V30.9923C186.749 30.0289 187.552 29.226 188.515 28.7443Z" fill="#fff"/>
<path d="M223.36 28.1016L216.937 45.4437H213.886L208.908 32.2765L203.77 45.4437H200.719L194.296 28.1016H197.347L202.325 41.911L207.624 28.1016H210.353L215.492 42.0716L220.63 28.1016H223.36Z" fill="#fff"/>
<path d="M226.571 24.0873C226.089 23.7662 225.929 23.2845 225.929 22.6422C225.929 21.9999 226.089 21.5181 226.571 21.197C227.053 20.7153 227.534 20.5547 228.177 20.5547C228.819 20.5547 229.301 20.7153 229.783 21.197C230.264 21.5181 230.425 21.9999 230.425 22.6422C230.425 23.2845 230.264 23.7662 229.783 24.0873C229.301 24.5691 228.819 24.7296 228.177 24.7296C227.534 24.7296 227.053 24.5691 226.571 24.0873ZM226.571 28.1017H229.783V45.4438H226.571V28.1017Z" fill="#fff"/>
<path d="M236.688 45.1218C235.403 44.8007 234.279 44.319 233.637 43.6767L234.921 41.1075C235.724 41.5892 236.688 42.0709 237.651 42.3921C238.775 42.7132 239.899 42.8738 241.023 42.8738C243.753 42.8738 245.198 42.0709 245.198 40.4652C245.198 39.9834 245.038 39.5017 244.716 39.1806C244.395 38.8594 243.914 38.6988 243.271 38.5383C242.629 38.3777 241.987 38.2171 240.863 38.0565C239.417 37.896 238.293 37.5748 237.491 37.2537C236.527 36.9325 235.885 36.4508 235.242 35.8085C234.6 35.1662 234.279 34.2027 234.279 32.9181C234.279 31.3124 234.921 30.0278 236.206 29.0643C237.491 28.1009 239.257 27.6191 241.505 27.6191C242.629 27.6191 243.753 27.7797 245.038 28.1009C246.162 28.422 247.125 28.7432 247.928 29.2249L246.643 31.7941C245.198 30.8306 243.592 30.3489 241.665 30.3489C240.381 30.3489 239.257 30.5095 238.615 30.9912C237.972 31.4729 237.491 31.9547 237.491 32.7575C237.491 33.3998 237.651 33.721 238.133 34.0421C238.454 34.3633 238.936 34.6844 239.578 34.845C240.22 35.0056 241.023 35.1662 241.987 35.3267C243.432 35.4873 244.556 35.8085 245.359 36.1296C246.162 36.4508 246.964 36.9325 247.607 37.5748C248.249 38.2171 248.57 39.1806 248.57 40.3046C248.57 41.9103 247.928 43.1949 246.483 43.9978C245.198 44.9613 243.271 45.443 241.023 45.443C239.257 45.6036 237.972 45.443 236.688 45.1218Z" fill="#fff"/>
<path d="M267.839 37.7365H253.708C253.869 39.3422 254.511 40.4663 255.796 41.4297C256.92 42.3932 258.365 42.8749 260.131 42.8749C262.219 42.8749 263.824 42.2326 265.109 40.7874L266.875 42.8749C266.073 43.8384 265.109 44.4807 263.985 44.9624C262.861 45.4441 261.576 45.7653 260.131 45.7653C258.365 45.7653 256.599 45.4441 255.314 44.6412C253.869 43.8384 252.745 42.8749 251.942 41.4297C251.139 40.1451 250.818 38.5394 250.818 36.773C250.818 35.1673 251.139 33.5615 251.942 32.2769C252.745 30.9923 253.708 29.8683 254.993 29.0654C256.277 28.2626 257.883 27.9414 259.489 27.9414C261.095 27.9414 262.7 28.2626 263.985 29.0654C265.27 29.8683 266.233 30.8318 267.036 32.2769C267.839 33.5615 268.16 35.1673 268.16 36.9336C267.999 37.0942 267.839 37.4153 267.839 37.7365ZM255.475 31.9558C254.511 32.9192 253.869 34.0433 253.708 35.4884H264.948C264.788 34.0433 264.146 32.7587 263.182 31.9558C262.219 30.9923 260.934 30.5106 259.328 30.5106C257.723 30.5106 256.599 30.9923 255.475 31.9558Z" fill="#fff"/>
<path d="M53.471 29.2253L37.4135 22.16L33.7203 17.6639C32.5963 16.3793 30.9905 15.4159 29.2242 15.2553V13.1678C32.9174 12.6861 35.326 9.31399 34.8443 5.62076C34.3626 1.92753 31.1511 -0.481094 27.4579 0.000631928C24.2464 0.482358 21.8377 3.21214 21.8377 6.58421H23.7646C23.7646 4.01501 25.8521 1.92753 28.4213 1.92753C30.9905 1.92753 33.078 4.01501 33.078 6.58421C33.078 9.15342 30.9905 11.2409 28.4213 11.2409C27.9396 11.2409 27.4579 11.7226 27.4579 12.2043V15.0947C25.6915 15.4159 24.0858 16.3793 22.9618 17.6639L19.2685 22.16L3.21101 29.2253C0.481233 30.5099 -0.803369 33.7214 0.320658 36.4512C1.28411 38.3781 3.21101 39.8233 5.45906 39.8233H13.1667V52.1876C13.1667 52.6693 13.6484 53.151 14.1301 53.151H17.9839V55.0779C17.9839 55.5597 18.4657 56.0414 18.9474 56.0414H43.5154C43.9971 56.0414 44.4788 55.5597 44.4788 55.0779V39.9839H51.223C54.2739 39.9839 56.6825 37.5752 56.6825 34.5243C56.8431 32.1157 55.5585 30.0282 53.471 29.2253ZM17.9839 51.0635H15.0936V39.6627H17.9839V51.0635ZM42.5519 53.9539H19.9108V34.5243C19.9108 34.0426 19.7503 33.5608 19.5897 33.0791H40.7856C41.9096 33.0791 42.7125 33.882 42.7125 35.006V53.9539H42.5519ZM44.3183 34.0426C43.8365 32.4368 42.3914 31.1522 40.625 31.1522H16.057C14.6118 31.3128 13.4878 32.4368 13.3272 33.882H6.90424C6.74367 33.882 6.74366 33.7214 6.74366 33.7214C6.74366 33.7214 6.74367 33.5608 6.90424 33.5608L23.2829 26.335C23.4435 26.335 23.6041 26.1744 23.6041 26.0138L27.779 21.036C28.2607 20.5543 28.903 20.5543 29.3848 20.8754C29.3848 20.8754 29.3848 20.8754 29.5453 21.036L33.7203 26.0138C33.8809 26.1744 33.8809 26.1744 34.0414 26.335L50.099 33.7214C50.2595 33.7214 50.2595 33.882 50.2595 34.0426L50.099 34.2031H44.3183V34.0426ZM17.9839 34.0426H15.2542C15.5753 33.2397 16.3782 32.9185 17.0205 33.2397C17.5022 33.4003 17.8234 33.7214 17.9839 34.0426ZM54.5951 35.6483C53.9528 36.9329 52.6682 37.8964 51.223 37.8964H44.4788V35.9695H49.9384C51.0624 35.9695 52.0259 35.006 52.0259 33.882C52.0259 33.0791 51.5441 32.2762 50.7413 31.9551L34.5232 24.7292L30.5088 19.912C29.3848 18.6274 27.6184 18.4668 26.3338 19.5908C26.1733 19.7514 26.0127 19.912 26.0127 19.912L21.9983 24.7292L5.94079 31.9551C4.81676 32.4368 4.33504 33.7214 4.81676 34.6849C5.13791 35.4878 5.94079 35.9695 6.74366 35.9695H17.9839V37.8964H5.45906C3.37159 37.8964 1.76583 36.2906 1.76583 34.2031C1.76583 32.758 2.56871 31.4734 4.01389 30.8311L20.232 23.7658C20.3926 23.7658 20.5531 23.6052 20.5531 23.4446L24.4069 18.7879C26.1733 16.5399 29.3848 16.3793 31.6328 18.1456C31.7934 18.3062 32.1145 18.6274 32.2751 18.7879L36.1289 23.4446C36.2895 23.6052 36.2895 23.6052 36.4501 23.7658L52.6682 30.8311C54.5951 31.7945 55.3979 33.882 54.5951 35.6483Z" fill="#fff"/>
</g>
<defs>
<clipPath id="clip0">
<rect width="268" height="55.8802" fill="white"/>
</clipPath>
</defs>
</svg>
