<svg width="98" height="100" viewBox="0 0 98 100" fill="none" xmlns="http://www.w3.org/2000/svg">
<path d="M76.5 30L56.5 49.5L44.5 65.5L39.5 62.5L17.5 72.5L21.5 49.5L5 30L28 26.5L40.5 4L51.5 25.5L76.5 30Z" fill="#13AAFF"/>
<path d="M1.87116 32.9639L19.3336 50.535L14.4413 71.4406C13.9933 72.9024 14.1146 74.1215 14.8031 75.0721C15.3879 75.8768 16.3073 76.3386 17.3228 76.3386C18.1403 76.3386 18.9588 76.0521 19.8211 75.4626L40.0935 64.9752L45.3713 67.7068C45.7625 65.9649 46.3228 64.2907 47.0354 62.6948L40.0935 59.1022L20.2872 69.3505L25.0701 48.91L7.67358 31.4024L29.5886 28.6156L40.0931 7.7457L50.5979 28.6156L72.5137 31.4024L55.1158 48.91L55.8189 51.9102C58.0654 50.2835 60.5628 48.9866 63.2573 48.1189L78.3171 32.9639C80.4125 31.3345 80.1407 29.6123 79.92 28.9339C79.6976 28.2504 78.8962 26.684 76.2053 26.6161L54.009 23.7928L43.4347 2.78185C42.5339 0.276513 40.8073 0 40.0951 0C39.3803 0 37.6537 0.276513 36.7529 2.78185L26.1785 23.7928L3.98429 26.6161C1.29373 26.6843 0.490937 28.2521 0.268256 28.9339C0.0475803 29.6119 -0.223248 31.3345 1.87116 32.9639Z" fill="black"/>
<path d="M97.8797 75.2967C97.8797 65.9688 92.6808 57.8393 85.032 53.6354C81.5106 51.6998 77.4715 50.5928 73.1774 50.5928C68.9755 50.5928 65.0178 51.654 61.5508 53.513C59.8884 54.4024 58.3537 55.4891 56.9464 56.7219C54.4234 58.9293 52.3604 61.6372 50.9002 64.6933C50.1473 66.2674 49.5565 67.9245 49.1482 69.6598C48.7222 71.4733 48.4731 73.3544 48.4731 75.2967C48.4731 79.5939 49.5795 83.6332 51.5168 87.156C55.7207 94.8014 63.8519 100 73.1761 100C74.565 100 75.9181 99.8575 77.2442 99.6335C87.6026 97.9052 95.7812 89.7282 97.5132 79.3712C97.7356 78.0438 97.8797 76.6886 97.8797 75.2967ZM73.1777 94.7843C62.4322 94.7843 53.6918 86.0423 53.6918 75.2967C53.6918 74.2234 53.8001 73.1792 53.97 72.1541C54.2605 70.373 54.7901 68.6734 55.5304 67.0876C56.2744 65.495 57.2166 64.0162 58.3437 62.6921C59.6223 61.1912 61.1249 59.8939 62.797 58.8347C65.8075 56.9298 69.3611 55.8091 73.1797 55.8091C83.9236 55.8091 92.6657 64.5512 92.6657 75.297C92.6657 76.3292 92.5607 77.3343 92.4062 78.3226C91.0989 86.6454 84.5215 93.2212 76.1983 94.5252C75.2103 94.6794 74.2069 94.7843 73.1777 94.7843Z" fill="black"/>
<path d="M74.2472 70.1961C73.0639 70.1961 72.0605 70.3489 71.237 70.6545C70.7445 70.8414 70.0604 71.2199 69.1823 71.792L70.2182 65.4623H82.0387V60.6318H66.113L65.0942 68.6561L64.155 76.0467L64.0821 76.6204L69.1823 76.8618C69.6341 75.9958 70.3044 75.405 71.1945 75.0857C71.6987 74.9109 72.2965 74.8259 72.9873 74.8259C74.4475 74.8259 75.5221 75.3352 76.2149 76.3523C76.9026 77.3711 77.249 78.6169 77.249 80.0941C77.249 81.5983 76.8802 82.8478 76.1453 83.8395C75.4084 84.8295 74.3354 85.3251 72.9261 85.3251C71.7054 85.3251 70.7766 84.989 70.1383 84.3163C69.5017 83.6422 69.0703 82.6883 68.8443 81.4522H63.1753C63.3739 84.1672 64.3569 86.2623 66.1243 87.7394C67.8934 89.2183 70.1553 89.9569 72.9054 89.9569C76.3215 89.9569 78.8891 88.9043 80.6033 86.8022C82.3182 84.7005 83.1755 82.3112 83.1755 79.6353C83.1755 76.5626 82.2841 74.2194 80.5033 72.6095C78.7229 71.0012 76.6395 70.1961 74.2472 70.1961Z" fill="black"/>
</svg>
