<svg width="259" height="221" viewBox="0 0 259 221" fill="none" xmlns="http://www.w3.org/2000/svg">
    <path d="M61 89.2559H63.254V103.343H72.0446V105.372H61V89.2559Z" fill="#13AAFF"/>
    <path d="M82.7512 94.327C83.6528 95.1159 84.1036 96.3556 84.1036 98.0461V105.372H81.9623V103.794C81.6242 104.357 81.0607 104.808 80.3845 105.146C79.7083 105.484 78.9194 105.597 77.9051 105.597C76.5527 105.597 75.4257 105.259 74.6368 104.583C73.8479 103.907 73.3971 103.005 73.3971 101.991C73.3971 100.976 73.7352 100.075 74.5241 99.3985C75.313 98.7223 76.5527 98.3842 78.2432 98.3842H81.7369V97.9334C81.7369 97.0318 81.5115 96.2429 80.948 95.7921C80.3845 95.2286 79.5956 95.0032 78.4686 95.0032C77.7924 95.0032 77.0035 95.1159 76.3273 95.3413C75.6511 95.5667 75.0876 95.9048 74.5241 96.2429L73.6225 94.5524C74.2987 94.1016 74.9749 93.6508 75.8765 93.4254C76.7781 93.2 77.6797 92.9746 78.694 92.9746C80.6099 93.0873 81.8496 93.4254 82.7512 94.327ZM80.6099 103.23C81.1734 102.892 81.6242 102.329 81.9623 101.653V99.962H78.5813C76.6654 99.962 75.7638 100.638 75.7638 101.878C75.7638 102.441 75.9892 103.005 76.44 103.343C76.8908 103.681 77.567 103.907 78.4686 103.907C79.2575 103.794 79.9337 103.568 80.6099 103.23Z" fill="#13AAFF"/>
    <path d="M99.6559 93.1992V105.371H97.5146V103.568C97.0638 104.244 96.5003 104.695 95.7114 105.033C95.0352 105.371 94.1336 105.596 93.3447 105.596C91.7669 105.596 90.4145 105.145 89.5129 104.244C88.6113 103.342 88.1605 101.99 88.1605 100.299V93.3119H90.4145V100.074C90.4145 101.201 90.7526 102.103 91.3161 102.779C91.8796 103.342 92.6685 103.68 93.7955 103.68C94.9225 103.68 95.9368 103.342 96.613 102.666C97.2892 101.99 97.6273 100.976 97.6273 99.6231V93.3119H99.6559V93.1992Z" fill="#13AAFF"/>
    <path d="M114.082 94.4397C114.983 95.3413 115.434 96.6937 115.434 98.3842V105.372H113.18V98.6096C113.18 97.4826 112.842 96.581 112.278 95.9048C111.715 95.3413 110.926 95.0032 109.799 95.0032C108.559 95.0032 107.658 95.3413 106.982 96.0175C106.305 96.6937 105.967 97.708 105.967 99.0604V105.372H103.713V93.2H105.967V95.0032C106.418 94.327 106.982 93.8762 107.77 93.5381C108.559 93.2 109.348 92.9746 110.363 92.9746C111.94 93.0873 113.18 93.5381 114.082 94.4397Z" fill="#13AAFF"/>
    <path d="M131.1 88.2402V105.371H128.958V103.455C128.508 104.131 127.831 104.694 127.042 105.033C126.253 105.371 125.465 105.596 124.563 105.596C123.436 105.596 122.309 105.371 121.407 104.807C120.506 104.244 119.717 103.567 119.153 102.553C118.59 101.539 118.365 100.525 118.365 99.2848C118.365 98.0451 118.59 96.9181 119.153 96.0165C119.717 95.1149 120.393 94.326 121.407 93.8752C122.309 93.3117 123.436 93.0863 124.563 93.0863C125.465 93.0863 126.254 93.199 126.93 93.5371C127.719 93.8752 128.282 94.326 128.733 95.0022V88.2402H131.1ZM126.93 103.004C127.606 102.666 128.057 102.102 128.395 101.426C128.733 100.75 128.958 100.074 128.958 99.1721C128.958 98.2705 128.733 97.5943 128.395 96.9181C128.057 96.2419 127.493 95.7911 126.93 95.453C126.254 95.1149 125.577 94.8895 124.788 94.8895C123.999 94.8895 123.323 95.1149 122.647 95.453C121.971 95.7911 121.52 96.3546 121.182 96.9181C120.844 97.4816 120.619 98.2705 120.619 99.1721C120.619 100.074 120.844 100.75 121.182 101.426C121.52 102.102 122.084 102.553 122.647 103.004C123.211 103.455 123.999 103.567 124.788 103.567C125.577 103.567 126.254 103.455 126.93 103.004Z" fill="#13AAFF"/>
    <path d="M139.102 93.6494C139.89 93.3113 140.792 93.0859 141.806 93.0859V95.2272C141.694 95.2272 141.468 95.2272 141.356 95.2272C140.116 95.2272 139.214 95.5653 138.538 96.3542C137.862 97.0304 137.524 98.0447 137.524 99.3971V105.483H135.27V93.1986H137.411V95.2272C137.862 94.551 138.425 93.9875 139.102 93.6494Z" fill="#13AAFF"/>
    <path d="M163.557 93.1992L159.049 105.371H156.908L153.414 96.1294L149.808 105.371H147.667L143.159 93.1992H145.3L148.794 102.891L152.513 93.1992H154.429L158.035 103.004L161.641 93.1992H163.557Z" fill="#13AAFF"/>
    <path d="M165.811 90.3817C165.473 90.1563 165.36 89.8182 165.36 89.3674C165.36 88.9166 165.473 88.5785 165.811 88.3531C166.149 88.015 166.487 87.9023 166.938 87.9023C167.389 87.9023 167.727 88.015 168.065 88.3531C168.403 88.5785 168.516 88.9166 168.516 89.3674C168.516 89.8182 168.403 90.1563 168.065 90.3817C167.727 90.7198 167.389 90.8325 166.938 90.8325C166.487 90.8325 166.149 90.7198 165.811 90.3817ZM165.811 93.1992H168.065V105.371H165.811V93.1992Z" fill="#13AAFF"/>
    <path d="M172.911 105.146C172.009 104.92 171.22 104.582 170.77 104.131L171.671 102.328C172.235 102.666 172.911 103.004 173.587 103.23C174.376 103.455 175.165 103.568 175.954 103.568C177.87 103.568 178.884 103.004 178.884 101.877C178.884 101.539 178.771 101.201 178.546 100.976C178.321 100.75 177.982 100.638 177.532 100.525C177.081 100.412 176.63 100.3 175.841 100.187C174.827 100.074 174.038 99.8487 173.474 99.6233C172.798 99.3979 172.347 99.0598 171.897 98.609C171.446 98.1582 171.22 97.482 171.22 96.5804C171.22 95.4534 171.671 94.5518 172.573 93.8756C173.474 93.1994 174.714 92.8613 176.292 92.8613C177.081 92.8613 177.87 92.974 178.771 93.1994C179.56 93.4248 180.236 93.6502 180.8 93.9883L179.898 95.7915C178.884 95.1153 177.757 94.7772 176.405 94.7772C175.503 94.7772 174.714 94.8899 174.263 95.228C173.813 95.5661 173.474 95.9042 173.474 96.4677C173.474 96.9185 173.587 97.1439 173.925 97.3693C174.151 97.5947 174.489 97.8201 174.94 97.9328C175.39 98.0455 175.954 98.1582 176.63 98.2709C177.644 98.3836 178.433 98.609 178.997 98.8344C179.56 99.0598 180.124 99.3979 180.575 99.8487C181.025 100.3 181.251 100.976 181.251 101.765C181.251 102.892 180.8 103.793 179.786 104.357C178.884 105.033 177.532 105.371 175.954 105.371C174.714 105.484 173.813 105.371 172.911 105.146Z" fill="#13AAFF"/>
    <path d="M194.775 99.9606H184.857C184.97 101.088 185.421 101.877 186.322 102.553C187.111 103.229 188.126 103.567 189.365 103.567C190.83 103.567 191.957 103.116 192.859 102.102L194.099 103.567C193.535 104.243 192.859 104.694 192.07 105.032C191.281 105.37 190.38 105.596 189.365 105.596C188.126 105.596 186.886 105.37 185.984 104.807C184.97 104.243 184.181 103.567 183.618 102.553C183.054 101.651 182.829 100.524 182.829 99.2844C182.829 98.1574 183.054 97.0304 183.618 96.1288C184.181 95.2272 184.857 94.4383 185.759 93.8748C186.66 93.3113 187.787 93.0859 188.914 93.0859C190.041 93.0859 191.168 93.3113 192.07 93.8748C192.972 94.4383 193.648 95.1145 194.211 96.1288C194.775 97.0304 195 98.1574 195 99.3971C194.888 99.5098 194.775 99.7352 194.775 99.9606ZM186.097 95.9034C185.421 96.5796 184.97 97.3685 184.857 98.3828H192.746C192.634 97.3685 192.183 96.4669 191.507 95.9034C190.83 95.2272 189.929 94.8891 188.802 94.8891C187.675 94.8891 186.886 95.2272 186.097 95.9034Z" fill="#13AAFF"/>
    <path d="M161.343 40.7169L138.154 30.8938L132.82 24.6428C131.197 22.8568 128.878 21.5172 126.327 21.294V18.3917C131.661 17.722 135.139 13.0337 134.443 7.89888C133.748 2.76408 129.11 -0.584697 123.777 0.0850585C119.139 0.754814 115.66 4.5501 115.66 9.23839H118.443C118.443 5.66636 121.458 2.76408 125.168 2.76408C128.878 2.76408 131.893 5.66636 131.893 9.23839C131.893 12.8104 128.878 15.7127 125.168 15.7127C124.472 15.7127 123.777 16.3825 123.777 17.0522V21.0707C121.226 21.5172 118.907 22.8568 117.284 24.6428L111.95 30.8938L88.7612 40.7169C84.8191 42.5029 82.9639 46.968 84.5872 50.7633C85.9785 53.4423 88.7612 55.4515 92.0076 55.4515H103.138V72.642C103.138 73.3117 103.834 73.9815 104.53 73.9815H110.095V76.6605C110.095 77.3302 110.791 78 111.486 78H146.966C147.661 78 148.357 77.3302 148.357 76.6605V55.6748H158.096C162.502 55.6748 165.981 52.326 165.981 48.0842C166.212 44.7355 164.357 41.8332 161.343 40.7169ZM110.095 71.0792H105.921V55.2283H110.095V71.0792ZM145.574 75.0977H112.878V48.0842C112.878 47.4145 112.646 46.7447 112.414 46.075H143.023C144.647 46.075 145.806 47.1912 145.806 48.754V75.0977H145.574ZM148.125 47.4145C147.429 45.182 145.342 43.3959 142.792 43.3959H107.312C105.225 43.6192 103.602 45.182 103.37 47.1912H94.0947C93.8628 47.1912 93.8628 46.968 93.8628 46.968C93.8628 46.968 93.8628 46.7447 94.0947 46.7447L117.747 36.6984C117.979 36.6984 118.211 36.4751 118.211 36.2519L124.24 29.3311C124.936 28.6613 125.864 28.6613 126.559 29.1078C126.559 29.1078 126.559 29.1078 126.791 29.3311L132.82 36.2519C133.052 36.4751 133.052 36.4751 133.284 36.6984L156.473 46.968C156.705 46.968 156.705 47.1912 156.705 47.4145L156.473 47.6377H148.125V47.4145ZM110.095 47.4145H106.153C106.617 46.2982 107.776 45.8517 108.704 46.2982C109.399 46.5215 109.863 46.968 110.095 47.4145ZM162.966 49.647C162.038 51.433 160.183 52.7725 158.096 52.7725H148.357V50.0935H156.241C157.864 50.0935 159.256 48.754 159.256 47.1912C159.256 46.075 158.56 44.9587 157.401 44.5122L133.98 34.4659L128.182 27.7683C126.559 25.9823 124.008 25.759 122.153 27.3218C121.921 27.545 121.69 27.7683 121.69 27.7683L115.892 34.4659L92.7033 44.5122C91.0801 45.182 90.3844 46.968 91.0801 48.3075C91.5439 49.4237 92.7033 50.0935 93.8628 50.0935H110.095V52.7725H92.0076C88.9931 52.7725 86.6742 50.54 86.6742 47.6377C86.6742 45.6285 87.8336 43.8424 89.9206 42.9494L113.342 33.1264C113.573 33.1264 113.805 32.9031 113.805 32.6798L119.371 26.2055C121.921 23.08 126.559 22.8568 129.806 25.3125C130.038 25.5358 130.501 25.9823 130.733 26.2055L136.299 32.6798C136.531 32.9031 136.531 32.9031 136.762 33.1264L160.183 42.9494C162.966 44.2889 164.125 47.1912 162.966 49.647Z" fill="#13AAFF"/>
    <path d="M205 139C211.627 139 217 133.627 217 127C217 120.373 211.627 115 205 115C198.373 115 193 120.373 193 127C193 133.627 198.373 139 205 139Z" fill="url(#paint0_linear)"/>
    <path d="M173.5 158C177.09 158 180 155.09 180 151.5C180 147.91 177.09 145 173.5 145C169.91 145 167 147.91 167 151.5C167 155.09 169.91 158 173.5 158Z" fill="url(#paint1_linear)"/>
    <path d="M138.226 182.806C102.197 189.19 69.6715 168.277 44.3743 142.961C32.109 130.634 18.5295 127.222 7.79731 127.002C2.21221 126.891 -1.62071 132.725 0.679042 137.898C22.4719 186.879 71.4237 221 128.26 221C177.103 221 220.031 195.904 245 157.821C209.299 143.512 174.255 176.532 138.226 182.806Z" fill="url(#paint2_linear)"/>
    <path d="M70 131.5C70 133.923 68.0385 136 65.5 136C63.0769 136 61 134.038 61 131.5C61 128.962 62.9615 127 65.5 127C68.0385 127 70 129.077 70 131.5Z" fill="url(#paint3_linear)"/>
    <path d="M195.012 174.192C160.7 180.659 137.241 148.759 101.066 141.524C80.5671 137.468 43.8439 151.719 16 164.764C41.5418 198.856 82.2114 221 128.143 221C187.558 221 238.312 183.948 258.592 131.768C260.566 126.725 254.975 122.012 250.371 124.862C231.735 136.701 222.089 169.149 195.012 174.192Z" fill="url(#paint4_linear)"/>
    <defs>
        <linearGradient id="paint0_linear" x1="192.974" y1="127.043" x2="217.001" y2="127.043" gradientUnits="userSpaceOnUse">
            <stop stop-color="#16ABFF"/>
            <stop offset="1" stop-color="#85D2FE"/>
        </linearGradient>
        <linearGradient id="paint1_linear" x1="167.023" y1="151.468" x2="179.923" y2="151.468" gradientUnits="userSpaceOnUse">
            <stop stop-color="#16ABFF"/>
            <stop offset="1" stop-color="#85D2FE"/>
        </linearGradient>
        <linearGradient id="paint2_linear" x1="-40.1701" y1="173.946" x2="81.3608" y2="173.946" gradientUnits="userSpaceOnUse">
            <stop stop-color="#16ABFF"/>
            <stop offset="1" stop-color="#85D2FE"/>
        </linearGradient>
        <linearGradient id="paint3_linear" x1="61.1514" y1="131.505" x2="70.0561" y2="131.505" gradientUnits="userSpaceOnUse">
            <stop stop-color="#16ABFF"/>
            <stop offset="1" stop-color="#85D2FE"/>
        </linearGradient>
        <linearGradient id="paint4_linear" x1="278.781" y1="181.398" x2="80.1623" y2="162.138" gradientUnits="userSpaceOnUse">
            <stop stop-color="#16ABFF"/>
            <stop offset="1" stop-color="#85D2FE"/>
        </linearGradient>
    </defs>
</svg>
